<?xml version="1.0"?>
<svg xmlns="http://www.w3.org/2000/svg" viewBox="0 0 64 64" width="512" height="512"><g id="Solid"><path d="M28.122,24.283,32,29l3.878-4.717a11,11,0,1,0-7.756,0ZM23.926,13a.994.994,0,0,1,1.986-.071h1.211a4.967,4.967,0,0,1,.722-1.7l-.818-.817-.05.05a1,1,0,0,1-1.414-1.414l1.415-1.414a.994.994,0,0,1,1.454,1.354l.836.837A4.963,4.963,0,0,1,31,9.1V7.994h-.071a1,1,0,0,1,0-2h2A.994.994,0,0,1,33,7.98V9.1a4.942,4.942,0,0,1,1.64.671l.783-.783a.993.993,0,0,1,1.453-1.354L38.291,9.05a1,1,0,1,1-1.414,1.414l-.05-.05-.732.732a4.97,4.97,0,0,1,.782,1.78h1.064A.994.994,0,0,1,39.926,13v2a1,1,0,0,1-2,0v-.071h-1.02a4.954,4.954,0,0,1-.728,1.806l.759.758a.994.994,0,0,1,1.354,1.454l-1.415,1.414a1,1,0,1,1-1.414-1.414l.051-.05-.739-.739A4.971,4.971,0,0,1,33,18.9v1.109a.994.994,0,0,1-.071,1.986h-2a1,1,0,0,1,0-2H31V18.9a4.975,4.975,0,0,1-1.854-.8l-.8.8.051.05a1,1,0,1,1-1.414,1.414l-1.415-1.414A.994.994,0,0,1,26.917,17.5l.855-.855a4.931,4.931,0,0,1-.678-1.714H25.926V15a1,1,0,1,1-2,0Z"/><circle cx="32" cy="14" r="3"/><path d="M59,51h2v-.265a2,2,0,0,0-1.717-1.98L47,47,35.343,35.343A8,8,0,0,0,29.686,33H7.617a2,2,0,0,0-1.956,1.581L3,47v9a1,1,0,0,0,1,1h8a4,4,0,0,0,8,0H46a4,4,0,0,0,8,0h6a1,1,0,0,0,1-1V53H59a1,1,0,0,1,0-2ZM13,45V41H11V39h2V37h2v2h2v2H15v4Zm3,14a2,2,0,1,1,2-2A2,2,0,0,1,16,59Zm9-8H24a1,1,0,0,1,0-2h1a1,1,0,0,1,0,2Zm6-4H23.14l2.25-6H31Zm4,4H34a1,1,0,0,1,0-2h1a1,1,0,0,1,0,2Zm-2-4V41h5.17l6,6ZM50,59a2,2,0,1,1,2-2A2,2,0,0,1,50,59Z"/></g></svg>
