<svg height="512" viewBox="0 0 64 64" width="512" xmlns="http://www.w3.org/2000/svg"><g id="Flat"><path d="m47 47h-44l2.661-12.419a2 2 0 0 1 1.956-1.581h22.069a8 8 0 0 1 5.657 2.343z" fill="#253238"/><path d="m5 47 2.617-12h22.07a5.961 5.961 0 0 1 4.242 1.757l2.243 2.243h-12.172l-3 8z" fill="#455a64"/><path d="m4 57h56a1 1 0 0 0 1-1v-5.265a2 2 0 0 0 -1.717-1.98l-12.283-1.755-8-8h-15l-3 8h-18v9a1 1 0 0 0 1 1z" fill="#253238"/><path d="m31 41v6h-7.86l2.25-6z" fill="#90caf9"/><path d="m44.17 47h-11.17v-6h5.17z" fill="#90caf9"/><circle cx="50" cy="57" fill="#212121" r="4"/><circle cx="50" cy="57" fill="#bdbdbd" r="2"/><circle cx="16" cy="57" fill="#212121" r="4"/><circle cx="16" cy="57" fill="#bdbdbd" r="2"/><path d="m17 39h-2v-2h-2v2h-2v2h2v4h2v-4h2z" fill="#eee"/><path d="m37 51h-1a1 1 0 0 1 0-2h1a1 1 0 0 1 0 2z" fill="#455a64"/><path d="m24 51h-1a1 1 0 0 1 0-2h1a1 1 0 0 1 0 2z" fill="#455a64"/><path d="m43 14a11 11 0 1 0 -14.878 10.283l3.878 4.717 3.878-4.717a10.992 10.992 0 0 0 7.122-10.283z" fill="#ffcc80"/><circle cx="31.929" cy="13.994" fill="#870e4f" r="3.999"/><path d="m25.926 15v-.071h1.168a4.931 4.931 0 0 0 .678 1.714l-.855.855a.994.994 0 0 0 -1.354 1.454l1.415 1.414a1 1 0 0 0 1.414-1.414l-.051-.05.8-.8a4.975 4.975 0 0 0 1.859.798v1.095h-.071a1 1 0 0 0 0 2h2a.994.994 0 0 0 .071-1.987v-1.108a4.971 4.971 0 0 0 1.774-.744l.739.739-.051.05a1 1 0 1 0 1.414 1.414l1.415-1.414a.994.994 0 0 0 -1.354-1.454l-.759-.758a4.954 4.954 0 0 0 .728-1.806h1.02v.073a1 1 0 0 0 2 0v-2a.994.994 0 0 0 -1.985-.071h-1.064a4.97 4.97 0 0 0 -.782-1.78l.732-.732.05.05a1 1 0 1 0 1.414-1.417l-1.415-1.415a.993.993 0 0 0 -1.453 1.354l-.783.783a4.942 4.942 0 0 0 -1.64-.672v-1.12a.994.994 0 0 0 -.071-1.986h-2a1 1 0 0 0 0 2h.071v1.106a4.963 4.963 0 0 0 -1.732.721l-.836-.837a.994.994 0 0 0 -1.454-1.354l-1.415 1.415a1 1 0 1 0 1.414 1.414l.05-.05.818.817a4.967 4.967 0 0 0 -.722 1.7h-1.211a.994.994 0 0 0 -1.986.074v2a1 1 0 1 0 2 0zm6.074-4a3 3 0 1 1 -3 3 3 3 0 0 1 3-3z" fill="#ad1456"/><path d="m61 51h-2a1 1 0 0 0 0 2h2z" fill="#ffcc80"/></g></svg>