<svg id="Layer_1" enable-background="new 0 0 512 512" height="512" viewBox="0 0 512 512" width="512" xmlns="http://www.w3.org/2000/svg"><g><path d="m459.406 84.727-80.333-80.333c-2.813-2.813-6.628-4.394-10.606-4.394h-47.76l63.513 63.514c10.664 10.664 15.264 25.858 12.306 40.646l-80.333 401.665c-.424 2.122-1.003 4.181-1.709 6.175h53.983c7.15 0 13.307-5.047 14.708-12.058l80.333-401.667c.984-4.918-.555-10.002-4.102-13.548z"/><path d="m363.006 84.727-80.333-80.333c-2.813-2.813-6.628-4.394-10.606-4.394h-128.534c-3.979 0-7.793 1.581-10.606 4.394l-80.333 80.333c-3.546 3.546-5.086 8.63-4.102 13.548l80.333 401.667c1.402 7.011 7.558 12.058 14.708 12.058h128.534c7.15 0 13.307-5.047 14.708-12.058l80.333-401.667c.984-4.918-.555-10.002-4.102-13.548zm-107.006 105.94h-33.2v97.467c0 8.284-6.716 15-15 15s-15-6.716-15-15v-97.467h-33.2c-8.284 0-15-6.716-15-15s6.716-15 15-15h33.2v-49.267c0-8.284 6.716-15 15-15s15 6.716 15 15v49.267h33.2c8.284 0 15 6.716 15 15s-6.716 15-15 15z"/></g></svg>