<svg id="Layer_1" enable-background="new 0 0 512 512" height="512" viewBox="0 0 512 512" width="512" xmlns="http://www.w3.org/2000/svg"><g><path d="m383.467 127.467c0-70.286-57.182-127.467-127.467-127.467s-127.467 57.181-127.467 127.467v260.267h254.934zm-79.267 63.2h-33.2v97.467c0 8.284-6.716 15-15 15s-15-6.716-15-15v-97.467h-33.2c-8.284 0-15-6.716-15-15s6.716-15 15-15h33.2v-49.267c0-8.284 6.716-15 15-15s15 6.716 15 15v49.267h33.2c8.284 0 15 6.716 15 15s-6.716 15-15 15z"/><path d="m447.733 432.733c0-8.284-6.716-15-15-15h-353.466c-8.284 0-15 6.716-15 15v19.267h383.467v-19.267z"/><path d="m497 482h-482c-8.284 0-15 6.716-15 15s6.716 15 15 15h482c8.284 0 15-6.716 15-15s-6.716-15-15-15z"/></g></svg>